<?xml version="1.0"?>
<svg xmlns="http://www.w3.org/2000/svg" xmlns:xlink="http://www.w3.org/1999/xlink" viewBox="0 0 512 512" width="512" height="512"><defs><linearGradient id="linear-gradient" x1="79.134" y1="487.887" x2="432.866" y2="134.155" gradientUnits="userSpaceOnUse"><stop offset="0" stop-color="#41dfd0"/><stop offset="1" stop-color="#ee83ef"/></linearGradient></defs><g id="gradient"><path d="M464,338.144V338a26.038,26.038,0,0,0-16-24V280a8,8,0,0,0,8-8V240c0-110.28-89.719-200-200-200h0C145.72,40,56,129.72,56,240v32a8,8,0,0,0,8,8v34a26.038,26.038,0,0,0-16,24v.145a49.918,49.918,0,0,0-32,46.647v14.416a49.92,49.92,0,0,0,32,46.647V446a26.03,26.03,0,0,0,26,26h46a8,8,0,0,0,8-8v-3.056l14.311-7.155A31.826,31.826,0,0,0,160,425.167V358.833a31.826,31.826,0,0,0-17.689-28.622L128,323.056V320a8,8,0,0,0-8-8h-8V280a8,8,0,0,0,8-8V240c0-74.991,61.01-136,136-136s136,61.009,136,136v32a8,8,0,0,0,8,8v32h-8a8,8,0,0,0-8,8v3.056l-14.311,7.155A31.826,31.826,0,0,0,352,358.833v66.334a31.826,31.826,0,0,0,17.689,28.622L384,460.944V464a8,8,0,0,0,8,8h46a26.03,26.03,0,0,0,26-26v-.145a49.919,49.919,0,0,0,32-46.647V384.792A49.917,49.917,0,0,0,464,338.144ZM48,428.063a33.948,33.948,0,0,1-16-28.855V384.792a33.949,33.949,0,0,1,16-28.854Zm80-87.119,7.155,3.578A15.912,15.912,0,0,1,144,358.833v66.334a15.912,15.912,0,0,1-8.845,14.311L128,443.056ZM384,443.056l-7.155-3.578A15.912,15.912,0,0,1,368,425.167V358.833a15.912,15.912,0,0,1,8.845-14.311L384,340.944ZM112,456H96V384a8,8,0,0,0-16,0v72H74a10.011,10.011,0,0,1-10-10V338a10.011,10.011,0,0,1,10-10h6v24a8,8,0,0,0,16,0V328h16ZM80,312V280H96v32ZM256,88c-83.813,0-152,68.187-152,152v24H72V240C72,138.542,154.542,56,256,56s184,82.542,184,184v24H408V240C408,156.187,339.813,88,256,88ZM432,280v32H416V280Zm16,64V446a10.011,10.011,0,0,1-10,10h-6V384a8,8,0,0,0-16,0v72H400V328h16v24a8,8,0,0,0,16,0V328h6a10.011,10.011,0,0,1,10,10Zm32,55.208a33.95,33.95,0,0,1-16,28.857V355.937a33.948,33.948,0,0,1,16,28.855ZM184,376h18.584l13.988-34.971a8,8,0,0,1,15.074.618l23.105,75.093L280.19,302.265a8,8,0,0,1,15.473-.564L317.952,376H328a8,8,0,0,1,0,16H312a8,8,0,0,1-7.663-5.7l-15.183-50.612L263.81,449.735a8,8,0,0,1-7.491,6.259q-.162.006-.321.006a8,8,0,0,1-7.644-5.647L223.015,368l-7.587,18.969A8,8,0,0,1,208,392H184a8,8,0,0,1,0-16Zm8-136a8,8,0,0,1-8-8V208a8,8,0,0,1,16,0v24A8,8,0,0,1,192,240Zm24,16V192a8,8,0,0,1,16,0v64a8,8,0,0,1-16,0Zm40,24a8,8,0,0,1-8-8V176a8,8,0,0,1,16,0v96A8,8,0,0,1,256,280Zm24-24V192a8,8,0,0,1,16,0v64a8,8,0,0,1-16,0Zm40-16a8,8,0,0,1-8-8V208a8,8,0,0,1,16,0v24A8,8,0,0,1,320,240Zm32-8a8,8,0,0,1-8-8v-8a8,8,0,0,1,16,0v8A8,8,0,0,1,352,232Zm-184-8a8,8,0,0,1-16,0v-8a8,8,0,0,1,16,0Z" style="fill:url(#linear-gradient)"/></g></svg>
